<mxfile host="Electron" agent="Mozilla/5.0 (Windows NT 10.0; Win64; x64) AppleWebKit/537.36 (KHTML, like Gecko) draw.io/24.7.8 Chrome/128.0.6613.36 Electron/32.0.1 Safari/537.36" version="24.7.8">
  <diagram id="C5RBs43oDa-KdzZeNtuy" name="Page-1">
    <mxGraphModel dx="1395" dy="697" grid="1" gridSize="10" guides="1" tooltips="1" connect="1" arrows="1" fold="1" page="1" pageScale="1" pageWidth="827" pageHeight="1169" math="0" shadow="0">
      <root>
        <mxCell id="WIyWlLk6GJQsqaUBKTNV-0" />
        <mxCell id="WIyWlLk6GJQsqaUBKTNV-1" parent="WIyWlLk6GJQsqaUBKTNV-0" />
        <mxCell id="8M1j4d1DlvPESHGVBWMY-0" value="Run" style="rounded=0;whiteSpace=wrap;html=1;" parent="WIyWlLk6GJQsqaUBKTNV-1" vertex="1">
          <mxGeometry x="100" y="47.63" width="120" height="60" as="geometry" />
        </mxCell>
        <mxCell id="8M1j4d1DlvPESHGVBWMY-1" value="Occurs" style="rhombus;whiteSpace=wrap;html=1;" parent="WIyWlLk6GJQsqaUBKTNV-1" vertex="1">
          <mxGeometry x="120" y="207.63" width="80" height="80" as="geometry" />
        </mxCell>
        <mxCell id="8M1j4d1DlvPESHGVBWMY-2" value="Event" style="rounded=0;whiteSpace=wrap;html=1;" parent="WIyWlLk6GJQsqaUBKTNV-1" vertex="1">
          <mxGeometry x="100" y="387.63" width="120" height="60" as="geometry" />
        </mxCell>
        <mxCell id="8M1j4d1DlvPESHGVBWMY-3" value="" style="endArrow=none;html=1;rounded=0;entryX=0.5;entryY=1;entryDx=0;entryDy=0;exitX=0.5;exitY=0;exitDx=0;exitDy=0;" parent="WIyWlLk6GJQsqaUBKTNV-1" source="8M1j4d1DlvPESHGVBWMY-1" target="8M1j4d1DlvPESHGVBWMY-0" edge="1">
          <mxGeometry width="50" height="50" relative="1" as="geometry">
            <mxPoint x="410" y="427.63" as="sourcePoint" />
            <mxPoint x="460" y="377.63" as="targetPoint" />
          </mxGeometry>
        </mxCell>
        <mxCell id="8M1j4d1DlvPESHGVBWMY-4" value="" style="endArrow=none;html=1;rounded=0;entryX=0.5;entryY=1;entryDx=0;entryDy=0;exitX=0.5;exitY=0;exitDx=0;exitDy=0;" parent="WIyWlLk6GJQsqaUBKTNV-1" source="8M1j4d1DlvPESHGVBWMY-2" target="8M1j4d1DlvPESHGVBWMY-1" edge="1">
          <mxGeometry width="50" height="50" relative="1" as="geometry">
            <mxPoint x="150" y="180" as="sourcePoint" />
            <mxPoint x="150" y="110" as="targetPoint" />
          </mxGeometry>
        </mxCell>
        <mxCell id="8M1j4d1DlvPESHGVBWMY-5" value="" style="endArrow=none;html=1;rounded=0;exitX=1;exitY=0.25;exitDx=0;exitDy=0;entryX=0;entryY=0.5;entryDx=0;entryDy=0;" parent="WIyWlLk6GJQsqaUBKTNV-1" source="8M1j4d1DlvPESHGVBWMY-2" target="8M1j4d1DlvPESHGVBWMY-6" edge="1">
          <mxGeometry width="50" height="50" relative="1" as="geometry">
            <mxPoint x="390" y="420" as="sourcePoint" />
            <mxPoint x="300" y="350" as="targetPoint" />
          </mxGeometry>
        </mxCell>
        <mxCell id="8M1j4d1DlvPESHGVBWMY-6" value="Participate" style="rhombus;whiteSpace=wrap;html=1;rotation=0;" parent="WIyWlLk6GJQsqaUBKTNV-1" vertex="1">
          <mxGeometry x="340" y="257.63" width="80" height="80" as="geometry" />
        </mxCell>
        <mxCell id="8M1j4d1DlvPESHGVBWMY-7" value="" style="endArrow=none;html=1;rounded=0;exitX=1;exitY=0.75;exitDx=0;exitDy=0;entryX=0;entryY=0.5;entryDx=0;entryDy=0;" parent="WIyWlLk6GJQsqaUBKTNV-1" source="8M1j4d1DlvPESHGVBWMY-2" target="8M1j4d1DlvPESHGVBWMY-9" edge="1">
          <mxGeometry width="50" height="50" relative="1" as="geometry">
            <mxPoint x="390" y="420" as="sourcePoint" />
            <mxPoint x="350" y="500" as="targetPoint" />
          </mxGeometry>
        </mxCell>
        <mxCell id="8M1j4d1DlvPESHGVBWMY-9" value="Participate" style="rhombus;whiteSpace=wrap;html=1;rotation=0;" parent="WIyWlLk6GJQsqaUBKTNV-1" vertex="1">
          <mxGeometry x="340" y="488.63" width="80" height="80" as="geometry" />
        </mxCell>
        <mxCell id="8M1j4d1DlvPESHGVBWMY-10" value="Particle_A" style="rounded=0;whiteSpace=wrap;html=1;" parent="WIyWlLk6GJQsqaUBKTNV-1" vertex="1">
          <mxGeometry x="580" y="267.63" width="120" height="60" as="geometry" />
        </mxCell>
        <mxCell id="8M1j4d1DlvPESHGVBWMY-12" value="" style="endArrow=none;html=1;rounded=0;entryX=0;entryY=0.5;entryDx=0;entryDy=0;exitX=1;exitY=0.5;exitDx=0;exitDy=0;" parent="WIyWlLk6GJQsqaUBKTNV-1" source="8M1j4d1DlvPESHGVBWMY-6" target="8M1j4d1DlvPESHGVBWMY-10" edge="1">
          <mxGeometry width="50" height="50" relative="1" as="geometry">
            <mxPoint x="420" y="407.63" as="sourcePoint" />
            <mxPoint x="470" y="357.63" as="targetPoint" />
          </mxGeometry>
        </mxCell>
        <mxCell id="8M1j4d1DlvPESHGVBWMY-13" value="" style="endArrow=none;html=1;rounded=0;entryX=0;entryY=0.5;entryDx=0;entryDy=0;exitX=1;exitY=0.5;exitDx=0;exitDy=0;" parent="WIyWlLk6GJQsqaUBKTNV-1" source="8M1j4d1DlvPESHGVBWMY-9" target="8M1j4d1DlvPESHGVBWMY-80" edge="1">
          <mxGeometry width="50" height="50" relative="1" as="geometry">
            <mxPoint x="430" y="348.63" as="sourcePoint" />
            <mxPoint x="580" y="528.63" as="targetPoint" />
          </mxGeometry>
        </mxCell>
        <mxCell id="8M1j4d1DlvPESHGVBWMY-14" value="0..N" style="text;html=1;align=center;verticalAlign=middle;resizable=0;points=[];autosize=1;strokeColor=none;fillColor=none;" parent="WIyWlLk6GJQsqaUBKTNV-1" vertex="1">
          <mxGeometry x="150" y="362.63" width="50" height="30" as="geometry" />
        </mxCell>
        <mxCell id="8M1j4d1DlvPESHGVBWMY-15" value="1..1" style="text;html=1;align=center;verticalAlign=middle;resizable=0;points=[];autosize=1;strokeColor=none;fillColor=none;" parent="WIyWlLk6GJQsqaUBKTNV-1" vertex="1">
          <mxGeometry x="160" y="105.63" width="40" height="30" as="geometry" />
        </mxCell>
        <mxCell id="8M1j4d1DlvPESHGVBWMY-16" value="1:N" style="text;html=1;align=center;verticalAlign=middle;resizable=0;points=[];autosize=1;strokeColor=none;fillColor=none;" parent="WIyWlLk6GJQsqaUBKTNV-1" vertex="1">
          <mxGeometry x="195" y="232.63" width="40" height="30" as="geometry" />
        </mxCell>
        <mxCell id="8M1j4d1DlvPESHGVBWMY-17" value="1..1" style="text;html=1;align=center;verticalAlign=middle;resizable=0;points=[];autosize=1;strokeColor=none;fillColor=none;" parent="WIyWlLk6GJQsqaUBKTNV-1" vertex="1">
          <mxGeometry x="540" y="267.63" width="40" height="30" as="geometry" />
        </mxCell>
        <mxCell id="8M1j4d1DlvPESHGVBWMY-18" value="1..1" style="text;html=1;align=center;verticalAlign=middle;resizable=0;points=[];autosize=1;strokeColor=none;fillColor=none;" parent="WIyWlLk6GJQsqaUBKTNV-1" vertex="1">
          <mxGeometry x="540" y="498.63" width="40" height="30" as="geometry" />
        </mxCell>
        <mxCell id="8M1j4d1DlvPESHGVBWMY-19" value="1..1" style="text;html=1;align=center;verticalAlign=middle;resizable=0;points=[];autosize=1;strokeColor=none;fillColor=none;" parent="WIyWlLk6GJQsqaUBKTNV-1" vertex="1">
          <mxGeometry x="210" y="357.63" width="40" height="30" as="geometry" />
        </mxCell>
        <mxCell id="8M1j4d1DlvPESHGVBWMY-20" value="1..1" style="text;html=1;align=center;verticalAlign=middle;resizable=0;points=[];autosize=1;strokeColor=none;fillColor=none;" parent="WIyWlLk6GJQsqaUBKTNV-1" vertex="1">
          <mxGeometry x="210" y="447.63" width="40" height="30" as="geometry" />
        </mxCell>
        <mxCell id="8M1j4d1DlvPESHGVBWMY-21" value="1:1" style="text;html=1;align=center;verticalAlign=middle;resizable=0;points=[];autosize=1;strokeColor=none;fillColor=none;" parent="WIyWlLk6GJQsqaUBKTNV-1" vertex="1">
          <mxGeometry x="330" y="225" width="40" height="30" as="geometry" />
        </mxCell>
        <mxCell id="8M1j4d1DlvPESHGVBWMY-22" value="1:1" style="text;html=1;align=center;verticalAlign=middle;resizable=0;points=[];autosize=1;strokeColor=none;fillColor=none;" parent="WIyWlLk6GJQsqaUBKTNV-1" vertex="1">
          <mxGeometry x="360" y="458.63" width="40" height="30" as="geometry" />
        </mxCell>
        <mxCell id="8M1j4d1DlvPESHGVBWMY-24" value="num_run" style="text;html=1;align=center;verticalAlign=middle;resizable=0;points=[];autosize=1;strokeColor=none;fillColor=none;" parent="WIyWlLk6GJQsqaUBKTNV-1" vertex="1">
          <mxGeometry x="275" y="27.63" width="70" height="30" as="geometry" />
        </mxCell>
        <mxCell id="8M1j4d1DlvPESHGVBWMY-27" value="" style="ellipse;whiteSpace=wrap;html=1;aspect=fixed;" parent="WIyWlLk6GJQsqaUBKTNV-1" vertex="1">
          <mxGeometry x="60" y="433.63" width="10" height="10" as="geometry" />
        </mxCell>
        <mxCell id="8M1j4d1DlvPESHGVBWMY-31" value="" style="endArrow=none;html=1;rounded=0;exitX=1;exitY=0.25;exitDx=0;exitDy=0;" parent="WIyWlLk6GJQsqaUBKTNV-1" source="8M1j4d1DlvPESHGVBWMY-0" target="8M1j4d1DlvPESHGVBWMY-28" edge="1">
          <mxGeometry width="50" height="50" relative="1" as="geometry">
            <mxPoint x="220" y="62.63" as="sourcePoint" />
            <mxPoint x="270" y="47.63" as="targetPoint" />
          </mxGeometry>
        </mxCell>
        <mxCell id="8M1j4d1DlvPESHGVBWMY-28" value="" style="ellipse;whiteSpace=wrap;html=1;aspect=fixed;fillColor=default;" parent="WIyWlLk6GJQsqaUBKTNV-1" vertex="1">
          <mxGeometry x="265" y="37.63" width="10" height="10" as="geometry" />
        </mxCell>
        <mxCell id="8M1j4d1DlvPESHGVBWMY-32" value="" style="endArrow=none;html=1;rounded=0;exitX=0;exitY=0.5;exitDx=0;exitDy=0;" parent="WIyWlLk6GJQsqaUBKTNV-1" source="8M1j4d1DlvPESHGVBWMY-2" edge="1">
          <mxGeometry width="50" height="50" relative="1" as="geometry">
            <mxPoint x="410" y="417.63" as="sourcePoint" />
            <mxPoint x="70" y="437.63" as="targetPoint" />
          </mxGeometry>
        </mxCell>
        <mxCell id="8M1j4d1DlvPESHGVBWMY-33" value="num_run" style="text;html=1;align=center;verticalAlign=middle;whiteSpace=wrap;rounded=0;" parent="WIyWlLk6GJQsqaUBKTNV-1" vertex="1">
          <mxGeometry x="80" y="507.63" width="60" height="30" as="geometry" />
        </mxCell>
        <mxCell id="8M1j4d1DlvPESHGVBWMY-34" value="" style="endArrow=none;html=1;rounded=0;exitX=1;exitY=0.5;exitDx=0;exitDy=0;" parent="WIyWlLk6GJQsqaUBKTNV-1" source="8M1j4d1DlvPESHGVBWMY-0" edge="1">
          <mxGeometry width="50" height="50" relative="1" as="geometry">
            <mxPoint x="410" y="427.63" as="sourcePoint" />
            <mxPoint x="290" y="77.63" as="targetPoint" />
          </mxGeometry>
        </mxCell>
        <mxCell id="8M1j4d1DlvPESHGVBWMY-35" value="" style="ellipse;whiteSpace=wrap;html=1;aspect=fixed;fillColor=#FFFFFF;" parent="WIyWlLk6GJQsqaUBKTNV-1" vertex="1">
          <mxGeometry x="290" y="72.63" width="10" height="10" as="geometry" />
        </mxCell>
        <mxCell id="8M1j4d1DlvPESHGVBWMY-36" value="fecha" style="text;html=1;align=center;verticalAlign=middle;resizable=0;points=[];autosize=1;strokeColor=none;fillColor=none;" parent="WIyWlLk6GJQsqaUBKTNV-1" vertex="1">
          <mxGeometry x="300" y="62.63" width="50" height="30" as="geometry" />
        </mxCell>
        <mxCell id="8M1j4d1DlvPESHGVBWMY-37" value="" style="endArrow=none;html=1;rounded=0;exitX=0.108;exitY=0.983;exitDx=0;exitDy=0;exitPerimeter=0;entryX=0.5;entryY=0;entryDx=0;entryDy=0;" parent="WIyWlLk6GJQsqaUBKTNV-1" source="8M1j4d1DlvPESHGVBWMY-2" target="8M1j4d1DlvPESHGVBWMY-39" edge="1">
          <mxGeometry width="50" height="50" relative="1" as="geometry">
            <mxPoint x="410" y="417.63" as="sourcePoint" />
            <mxPoint x="146" y="507.63" as="targetPoint" />
          </mxGeometry>
        </mxCell>
        <mxCell id="8M1j4d1DlvPESHGVBWMY-38" value="num_evento" style="text;html=1;align=center;verticalAlign=middle;whiteSpace=wrap;rounded=0;" parent="WIyWlLk6GJQsqaUBKTNV-1" vertex="1">
          <mxGeometry x="30" y="483.63" width="60" height="30" as="geometry" />
        </mxCell>
        <mxCell id="8M1j4d1DlvPESHGVBWMY-39" value="" style="ellipse;whiteSpace=wrap;html=1;aspect=fixed;fillColor=#FFFFFF;" parent="WIyWlLk6GJQsqaUBKTNV-1" vertex="1">
          <mxGeometry x="100" y="502.63" width="10" height="10" as="geometry" />
        </mxCell>
        <mxCell id="8M1j4d1DlvPESHGVBWMY-43" value="id_part" style="text;html=1;align=center;verticalAlign=middle;whiteSpace=wrap;rounded=0;" parent="WIyWlLk6GJQsqaUBKTNV-1" vertex="1">
          <mxGeometry x="545" y="185" width="60" height="30" as="geometry" />
        </mxCell>
        <mxCell id="8M1j4d1DlvPESHGVBWMY-44" value="energy" style="text;html=1;align=center;verticalAlign=middle;resizable=0;points=[];autosize=1;strokeColor=none;fillColor=none;" parent="WIyWlLk6GJQsqaUBKTNV-1" vertex="1">
          <mxGeometry x="600" y="195" width="60" height="30" as="geometry" />
        </mxCell>
        <mxCell id="8M1j4d1DlvPESHGVBWMY-45" value="px" style="text;html=1;align=center;verticalAlign=middle;resizable=0;points=[];autosize=1;strokeColor=none;fillColor=none;" parent="WIyWlLk6GJQsqaUBKTNV-1" vertex="1">
          <mxGeometry x="680" y="202.63" width="40" height="30" as="geometry" />
        </mxCell>
        <mxCell id="8M1j4d1DlvPESHGVBWMY-46" value="py" style="text;html=1;align=center;verticalAlign=middle;resizable=0;points=[];autosize=1;strokeColor=none;fillColor=none;" parent="WIyWlLk6GJQsqaUBKTNV-1" vertex="1">
          <mxGeometry x="720" y="215" width="40" height="30" as="geometry" />
        </mxCell>
        <mxCell id="8M1j4d1DlvPESHGVBWMY-47" value="pz" style="text;html=1;align=center;verticalAlign=middle;resizable=0;points=[];autosize=1;strokeColor=none;fillColor=none;" parent="WIyWlLk6GJQsqaUBKTNV-1" vertex="1">
          <mxGeometry x="730" y="267.63" width="40" height="30" as="geometry" />
        </mxCell>
        <mxCell id="8M1j4d1DlvPESHGVBWMY-48" value="pt" style="text;html=1;align=center;verticalAlign=middle;resizable=0;points=[];autosize=1;strokeColor=none;fillColor=none;" parent="WIyWlLk6GJQsqaUBKTNV-1" vertex="1">
          <mxGeometry x="680" y="357.63" width="30" height="30" as="geometry" />
        </mxCell>
        <mxCell id="8M1j4d1DlvPESHGVBWMY-49" value="eta" style="text;html=1;align=center;verticalAlign=middle;resizable=0;points=[];autosize=1;strokeColor=none;fillColor=none;" parent="WIyWlLk6GJQsqaUBKTNV-1" vertex="1">
          <mxGeometry x="730" y="297.63" width="40" height="30" as="geometry" />
        </mxCell>
        <mxCell id="8M1j4d1DlvPESHGVBWMY-50" value="phi" style="text;html=1;align=center;verticalAlign=middle;resizable=0;points=[];autosize=1;strokeColor=none;fillColor=none;" parent="WIyWlLk6GJQsqaUBKTNV-1" vertex="1">
          <mxGeometry x="730" y="337.63" width="40" height="30" as="geometry" />
        </mxCell>
        <mxCell id="8M1j4d1DlvPESHGVBWMY-51" value="charge" style="text;html=1;align=center;verticalAlign=middle;resizable=0;points=[];autosize=1;strokeColor=none;fillColor=none;" parent="WIyWlLk6GJQsqaUBKTNV-1" vertex="1">
          <mxGeometry x="575" y="365.63" width="60" height="30" as="geometry" />
        </mxCell>
        <mxCell id="8M1j4d1DlvPESHGVBWMY-53" value="" style="endArrow=none;html=1;rounded=0;exitX=0.25;exitY=0;exitDx=0;exitDy=0;" parent="WIyWlLk6GJQsqaUBKTNV-1" source="8M1j4d1DlvPESHGVBWMY-64" target="8M1j4d1DlvPESHGVBWMY-44" edge="1">
          <mxGeometry width="50" height="50" relative="1" as="geometry">
            <mxPoint x="577" y="278" as="sourcePoint" />
            <mxPoint x="587" y="231" as="targetPoint" />
          </mxGeometry>
        </mxCell>
        <mxCell id="8M1j4d1DlvPESHGVBWMY-55" value="" style="endArrow=none;html=1;rounded=0;entryX=0.75;entryY=0;entryDx=0;entryDy=0;" parent="WIyWlLk6GJQsqaUBKTNV-1" source="8M1j4d1DlvPESHGVBWMY-68" target="8M1j4d1DlvPESHGVBWMY-10" edge="1">
          <mxGeometry width="50" height="50" relative="1" as="geometry">
            <mxPoint x="627" y="300.63" as="sourcePoint" />
            <mxPoint x="637" y="253.63" as="targetPoint" />
          </mxGeometry>
        </mxCell>
        <mxCell id="8M1j4d1DlvPESHGVBWMY-57" value="" style="endArrow=none;html=1;rounded=0;exitX=1;exitY=0.25;exitDx=0;exitDy=0;" parent="WIyWlLk6GJQsqaUBKTNV-1" source="8M1j4d1DlvPESHGVBWMY-70" target="8M1j4d1DlvPESHGVBWMY-47" edge="1">
          <mxGeometry width="50" height="50" relative="1" as="geometry">
            <mxPoint x="637" y="310.63" as="sourcePoint" />
            <mxPoint x="647" y="263.63" as="targetPoint" />
          </mxGeometry>
        </mxCell>
        <mxCell id="8M1j4d1DlvPESHGVBWMY-58" value="" style="endArrow=none;html=1;rounded=0;exitX=1;exitY=1;exitDx=0;exitDy=0;" parent="WIyWlLk6GJQsqaUBKTNV-1" source="8M1j4d1DlvPESHGVBWMY-74" target="8M1j4d1DlvPESHGVBWMY-50" edge="1">
          <mxGeometry width="50" height="50" relative="1" as="geometry">
            <mxPoint x="420" y="407.63" as="sourcePoint" />
            <mxPoint x="470" y="357.63" as="targetPoint" />
          </mxGeometry>
        </mxCell>
        <mxCell id="8M1j4d1DlvPESHGVBWMY-59" value="" style="endArrow=none;html=1;rounded=0;exitX=1.008;exitY=0.617;exitDx=0;exitDy=0;exitPerimeter=0;" parent="WIyWlLk6GJQsqaUBKTNV-1" source="8M1j4d1DlvPESHGVBWMY-72" target="8M1j4d1DlvPESHGVBWMY-49" edge="1">
          <mxGeometry width="50" height="50" relative="1" as="geometry">
            <mxPoint x="420" y="407.63" as="sourcePoint" />
            <mxPoint x="470" y="357.63" as="targetPoint" />
          </mxGeometry>
        </mxCell>
        <mxCell id="8M1j4d1DlvPESHGVBWMY-60" value="" style="endArrow=none;html=1;rounded=0;exitX=0.808;exitY=1.067;exitDx=0;exitDy=0;exitPerimeter=0;" parent="WIyWlLk6GJQsqaUBKTNV-1" source="8M1j4d1DlvPESHGVBWMY-76" target="8M1j4d1DlvPESHGVBWMY-48" edge="1">
          <mxGeometry width="50" height="50" relative="1" as="geometry">
            <mxPoint x="647" y="320.63" as="sourcePoint" />
            <mxPoint x="657" y="273.63" as="targetPoint" />
          </mxGeometry>
        </mxCell>
        <mxCell id="8M1j4d1DlvPESHGVBWMY-61" value="" style="endArrow=none;html=1;rounded=0;entryX=0.25;entryY=1;entryDx=0;entryDy=0;exitX=0.5;exitY=0;exitDx=0;exitDy=0;" parent="WIyWlLk6GJQsqaUBKTNV-1" source="8M1j4d1DlvPESHGVBWMY-78" target="8M1j4d1DlvPESHGVBWMY-10" edge="1">
          <mxGeometry width="50" height="50" relative="1" as="geometry">
            <mxPoint x="657" y="330.63" as="sourcePoint" />
            <mxPoint x="667" y="283.63" as="targetPoint" />
          </mxGeometry>
        </mxCell>
        <mxCell id="8M1j4d1DlvPESHGVBWMY-63" value="" style="endArrow=none;html=1;rounded=0;entryX=0.617;entryY=0.867;entryDx=0;entryDy=0;entryPerimeter=0;exitX=0.15;exitY=-0.05;exitDx=0;exitDy=0;exitPerimeter=0;" parent="WIyWlLk6GJQsqaUBKTNV-1" source="8M1j4d1DlvPESHGVBWMY-10" target="8M1j4d1DlvPESHGVBWMY-62" edge="1">
          <mxGeometry width="50" height="50" relative="1" as="geometry">
            <mxPoint x="568" y="262" as="sourcePoint" />
            <mxPoint x="577" y="221" as="targetPoint" />
          </mxGeometry>
        </mxCell>
        <mxCell id="8M1j4d1DlvPESHGVBWMY-62" value="" style="ellipse;whiteSpace=wrap;html=1;aspect=fixed;fillColor=#000000;" parent="WIyWlLk6GJQsqaUBKTNV-1" vertex="1">
          <mxGeometry x="570" y="215" width="10" height="10" as="geometry" />
        </mxCell>
        <mxCell id="8M1j4d1DlvPESHGVBWMY-65" value="" style="endArrow=none;html=1;rounded=0;exitX=0.25;exitY=0;exitDx=0;exitDy=0;entryX=0.608;entryY=0.862;entryDx=0;entryDy=0;entryPerimeter=0;" parent="WIyWlLk6GJQsqaUBKTNV-1" source="8M1j4d1DlvPESHGVBWMY-10" target="8M1j4d1DlvPESHGVBWMY-64" edge="1">
          <mxGeometry width="50" height="50" relative="1" as="geometry">
            <mxPoint x="610" y="267.63" as="sourcePoint" />
            <mxPoint x="641.4644660940676" y="236.1655339059323" as="targetPoint" />
          </mxGeometry>
        </mxCell>
        <mxCell id="8M1j4d1DlvPESHGVBWMY-64" value="" style="ellipse;whiteSpace=wrap;html=1;aspect=fixed;fillColor=#FFFFFF;" parent="WIyWlLk6GJQsqaUBKTNV-1" vertex="1">
          <mxGeometry x="630" y="222.63" width="10" height="10" as="geometry" />
        </mxCell>
        <mxCell id="8M1j4d1DlvPESHGVBWMY-68" value="" style="ellipse;whiteSpace=wrap;html=1;aspect=fixed;fillColor=#FFFFFF;" parent="WIyWlLk6GJQsqaUBKTNV-1" vertex="1">
          <mxGeometry x="730" y="245" width="10" height="10" as="geometry" />
        </mxCell>
        <mxCell id="8M1j4d1DlvPESHGVBWMY-71" value="" style="endArrow=none;html=1;rounded=0;exitX=1;exitY=0.25;exitDx=0;exitDy=0;" parent="WIyWlLk6GJQsqaUBKTNV-1" source="8M1j4d1DlvPESHGVBWMY-10" target="8M1j4d1DlvPESHGVBWMY-70" edge="1">
          <mxGeometry width="50" height="50" relative="1" as="geometry">
            <mxPoint x="700" y="282.63" as="sourcePoint" />
            <mxPoint x="740" y="282.63" as="targetPoint" />
          </mxGeometry>
        </mxCell>
        <mxCell id="8M1j4d1DlvPESHGVBWMY-70" value="" style="ellipse;whiteSpace=wrap;html=1;aspect=fixed;fillColor=#FFFFFF;" parent="WIyWlLk6GJQsqaUBKTNV-1" vertex="1">
          <mxGeometry x="730" y="277.63" width="10" height="10" as="geometry" />
        </mxCell>
        <mxCell id="8M1j4d1DlvPESHGVBWMY-73" value="" style="endArrow=none;html=1;rounded=0;exitX=1.008;exitY=0.617;exitDx=0;exitDy=0;exitPerimeter=0;" parent="WIyWlLk6GJQsqaUBKTNV-1" source="8M1j4d1DlvPESHGVBWMY-10" target="8M1j4d1DlvPESHGVBWMY-72" edge="1">
          <mxGeometry width="50" height="50" relative="1" as="geometry">
            <mxPoint x="701" y="304.63" as="sourcePoint" />
            <mxPoint x="730" y="309.63" as="targetPoint" />
          </mxGeometry>
        </mxCell>
        <mxCell id="8M1j4d1DlvPESHGVBWMY-72" value="" style="ellipse;whiteSpace=wrap;html=1;aspect=fixed;fillColor=#FFFFFF;" parent="WIyWlLk6GJQsqaUBKTNV-1" vertex="1">
          <mxGeometry x="730" y="307.63" width="10" height="10" as="geometry" />
        </mxCell>
        <mxCell id="8M1j4d1DlvPESHGVBWMY-75" value="" style="endArrow=none;html=1;rounded=0;exitX=1;exitY=1;exitDx=0;exitDy=0;" parent="WIyWlLk6GJQsqaUBKTNV-1" source="8M1j4d1DlvPESHGVBWMY-10" target="8M1j4d1DlvPESHGVBWMY-74" edge="1">
          <mxGeometry width="50" height="50" relative="1" as="geometry">
            <mxPoint x="700" y="327.63" as="sourcePoint" />
            <mxPoint x="730" y="342.63" as="targetPoint" />
          </mxGeometry>
        </mxCell>
        <mxCell id="8M1j4d1DlvPESHGVBWMY-74" value="" style="ellipse;whiteSpace=wrap;html=1;aspect=fixed;fillColor=#FFFFFF;" parent="WIyWlLk6GJQsqaUBKTNV-1" vertex="1">
          <mxGeometry x="730" y="337.63" width="10" height="10" as="geometry" />
        </mxCell>
        <mxCell id="8M1j4d1DlvPESHGVBWMY-77" value="" style="endArrow=none;html=1;rounded=0;exitX=0.808;exitY=1.067;exitDx=0;exitDy=0;exitPerimeter=0;" parent="WIyWlLk6GJQsqaUBKTNV-1" source="8M1j4d1DlvPESHGVBWMY-10" target="8M1j4d1DlvPESHGVBWMY-76" edge="1">
          <mxGeometry width="50" height="50" relative="1" as="geometry">
            <mxPoint x="677" y="331.63" as="sourcePoint" />
            <mxPoint x="688" y="357.63" as="targetPoint" />
          </mxGeometry>
        </mxCell>
        <mxCell id="8M1j4d1DlvPESHGVBWMY-76" value="" style="ellipse;whiteSpace=wrap;html=1;aspect=fixed;fillColor=#FFFFFF;" parent="WIyWlLk6GJQsqaUBKTNV-1" vertex="1">
          <mxGeometry x="680" y="355.63" width="10" height="10" as="geometry" />
        </mxCell>
        <mxCell id="8M1j4d1DlvPESHGVBWMY-78" value="" style="ellipse;whiteSpace=wrap;html=1;aspect=fixed;fillColor=#FFFFFF;" parent="WIyWlLk6GJQsqaUBKTNV-1" vertex="1">
          <mxGeometry x="595" y="355.63" width="10" height="10" as="geometry" />
        </mxCell>
        <mxCell id="8M1j4d1DlvPESHGVBWMY-80" value="Particle_B" style="rounded=0;whiteSpace=wrap;html=1;" parent="WIyWlLk6GJQsqaUBKTNV-1" vertex="1">
          <mxGeometry x="590" y="498.63" width="120" height="60" as="geometry" />
        </mxCell>
        <mxCell id="8M1j4d1DlvPESHGVBWMY-82" value="id_part" style="text;html=1;align=center;verticalAlign=middle;whiteSpace=wrap;rounded=0;" parent="WIyWlLk6GJQsqaUBKTNV-1" vertex="1">
          <mxGeometry x="585" y="418.63" width="60" height="30" as="geometry" />
        </mxCell>
        <mxCell id="8M1j4d1DlvPESHGVBWMY-83" value="energy" style="text;html=1;align=center;verticalAlign=middle;resizable=0;points=[];autosize=1;strokeColor=none;fillColor=none;" parent="WIyWlLk6GJQsqaUBKTNV-1" vertex="1">
          <mxGeometry x="640" y="428.63" width="60" height="30" as="geometry" />
        </mxCell>
        <mxCell id="8M1j4d1DlvPESHGVBWMY-84" value="px" style="text;html=1;align=center;verticalAlign=middle;resizable=0;points=[];autosize=1;strokeColor=none;fillColor=none;" parent="WIyWlLk6GJQsqaUBKTNV-1" vertex="1">
          <mxGeometry x="710" y="438.63" width="40" height="30" as="geometry" />
        </mxCell>
        <mxCell id="8M1j4d1DlvPESHGVBWMY-85" value="py" style="text;html=1;align=center;verticalAlign=middle;resizable=0;points=[];autosize=1;strokeColor=none;fillColor=none;" parent="WIyWlLk6GJQsqaUBKTNV-1" vertex="1">
          <mxGeometry x="760" y="458.63" width="40" height="30" as="geometry" />
        </mxCell>
        <mxCell id="8M1j4d1DlvPESHGVBWMY-86" value="pz" style="text;html=1;align=center;verticalAlign=middle;resizable=0;points=[];autosize=1;strokeColor=none;fillColor=none;" parent="WIyWlLk6GJQsqaUBKTNV-1" vertex="1">
          <mxGeometry x="750" y="498.63" width="40" height="30" as="geometry" />
        </mxCell>
        <mxCell id="8M1j4d1DlvPESHGVBWMY-87" value="pt" style="text;html=1;align=center;verticalAlign=middle;resizable=0;points=[];autosize=1;strokeColor=none;fillColor=none;" parent="WIyWlLk6GJQsqaUBKTNV-1" vertex="1">
          <mxGeometry x="690" y="588.63" width="30" height="30" as="geometry" />
        </mxCell>
        <mxCell id="8M1j4d1DlvPESHGVBWMY-88" value="eta" style="text;html=1;align=center;verticalAlign=middle;resizable=0;points=[];autosize=1;strokeColor=none;fillColor=none;" parent="WIyWlLk6GJQsqaUBKTNV-1" vertex="1">
          <mxGeometry x="740" y="528.63" width="40" height="30" as="geometry" />
        </mxCell>
        <mxCell id="8M1j4d1DlvPESHGVBWMY-89" value="phi" style="text;html=1;align=center;verticalAlign=middle;resizable=0;points=[];autosize=1;strokeColor=none;fillColor=none;" parent="WIyWlLk6GJQsqaUBKTNV-1" vertex="1">
          <mxGeometry x="740" y="568.63" width="40" height="30" as="geometry" />
        </mxCell>
        <mxCell id="8M1j4d1DlvPESHGVBWMY-90" value="charge" style="text;html=1;align=center;verticalAlign=middle;resizable=0;points=[];autosize=1;strokeColor=none;fillColor=none;" parent="WIyWlLk6GJQsqaUBKTNV-1" vertex="1">
          <mxGeometry x="585" y="596.63" width="60" height="30" as="geometry" />
        </mxCell>
        <mxCell id="8M1j4d1DlvPESHGVBWMY-92" value="" style="endArrow=none;html=1;rounded=0;exitX=0.25;exitY=0;exitDx=0;exitDy=0;" parent="WIyWlLk6GJQsqaUBKTNV-1" source="8M1j4d1DlvPESHGVBWMY-103" target="8M1j4d1DlvPESHGVBWMY-83" edge="1">
          <mxGeometry width="50" height="50" relative="1" as="geometry">
            <mxPoint x="617" y="511.63" as="sourcePoint" />
            <mxPoint x="627" y="464.63" as="targetPoint" />
          </mxGeometry>
        </mxCell>
        <mxCell id="8M1j4d1DlvPESHGVBWMY-93" value="" style="endArrow=none;html=1;rounded=0;exitX=0.5;exitY=0;exitDx=0;exitDy=0;" parent="WIyWlLk6GJQsqaUBKTNV-1" source="8M1j4d1DlvPESHGVBWMY-105" target="8M1j4d1DlvPESHGVBWMY-84" edge="1">
          <mxGeometry width="50" height="50" relative="1" as="geometry">
            <mxPoint x="627" y="521.63" as="sourcePoint" />
            <mxPoint x="637" y="474.63" as="targetPoint" />
          </mxGeometry>
        </mxCell>
        <mxCell id="8M1j4d1DlvPESHGVBWMY-94" value="" style="endArrow=none;html=1;rounded=0;entryX=0.75;entryY=0;entryDx=0;entryDy=0;" parent="WIyWlLk6GJQsqaUBKTNV-1" source="8M1j4d1DlvPESHGVBWMY-107" target="8M1j4d1DlvPESHGVBWMY-80" edge="1">
          <mxGeometry width="50" height="50" relative="1" as="geometry">
            <mxPoint x="637" y="531.63" as="sourcePoint" />
            <mxPoint x="647" y="484.63" as="targetPoint" />
          </mxGeometry>
        </mxCell>
        <mxCell id="8M1j4d1DlvPESHGVBWMY-95" value="" style="endArrow=none;html=1;rounded=0;exitX=1;exitY=0.25;exitDx=0;exitDy=0;" parent="WIyWlLk6GJQsqaUBKTNV-1" source="8M1j4d1DlvPESHGVBWMY-109" target="8M1j4d1DlvPESHGVBWMY-86" edge="1">
          <mxGeometry width="50" height="50" relative="1" as="geometry">
            <mxPoint x="647" y="541.63" as="sourcePoint" />
            <mxPoint x="657" y="494.63" as="targetPoint" />
          </mxGeometry>
        </mxCell>
        <mxCell id="8M1j4d1DlvPESHGVBWMY-96" value="" style="endArrow=none;html=1;rounded=0;exitX=1;exitY=1;exitDx=0;exitDy=0;" parent="WIyWlLk6GJQsqaUBKTNV-1" source="8M1j4d1DlvPESHGVBWMY-113" target="8M1j4d1DlvPESHGVBWMY-89" edge="1">
          <mxGeometry width="50" height="50" relative="1" as="geometry">
            <mxPoint x="430" y="638.63" as="sourcePoint" />
            <mxPoint x="480" y="588.63" as="targetPoint" />
          </mxGeometry>
        </mxCell>
        <mxCell id="8M1j4d1DlvPESHGVBWMY-97" value="" style="endArrow=none;html=1;rounded=0;exitX=1.008;exitY=0.617;exitDx=0;exitDy=0;exitPerimeter=0;" parent="WIyWlLk6GJQsqaUBKTNV-1" source="8M1j4d1DlvPESHGVBWMY-111" target="8M1j4d1DlvPESHGVBWMY-88" edge="1">
          <mxGeometry width="50" height="50" relative="1" as="geometry">
            <mxPoint x="430" y="638.63" as="sourcePoint" />
            <mxPoint x="480" y="588.63" as="targetPoint" />
          </mxGeometry>
        </mxCell>
        <mxCell id="8M1j4d1DlvPESHGVBWMY-99" value="" style="endArrow=none;html=1;rounded=0;entryX=0.25;entryY=1;entryDx=0;entryDy=0;exitX=0.5;exitY=0;exitDx=0;exitDy=0;" parent="WIyWlLk6GJQsqaUBKTNV-1" source="8M1j4d1DlvPESHGVBWMY-116" target="8M1j4d1DlvPESHGVBWMY-80" edge="1">
          <mxGeometry width="50" height="50" relative="1" as="geometry">
            <mxPoint x="667" y="561.63" as="sourcePoint" />
            <mxPoint x="677" y="514.63" as="targetPoint" />
          </mxGeometry>
        </mxCell>
        <mxCell id="8M1j4d1DlvPESHGVBWMY-100" value="" style="endArrow=none;html=1;rounded=0;entryX=0.617;entryY=0.867;entryDx=0;entryDy=0;entryPerimeter=0;exitX=0.15;exitY=-0.05;exitDx=0;exitDy=0;exitPerimeter=0;" parent="WIyWlLk6GJQsqaUBKTNV-1" source="8M1j4d1DlvPESHGVBWMY-80" target="8M1j4d1DlvPESHGVBWMY-101" edge="1">
          <mxGeometry width="50" height="50" relative="1" as="geometry">
            <mxPoint x="608" y="495.63" as="sourcePoint" />
            <mxPoint x="617" y="454.63" as="targetPoint" />
          </mxGeometry>
        </mxCell>
        <mxCell id="8M1j4d1DlvPESHGVBWMY-101" value="" style="ellipse;whiteSpace=wrap;html=1;aspect=fixed;fillColor=#000000;" parent="WIyWlLk6GJQsqaUBKTNV-1" vertex="1">
          <mxGeometry x="610" y="448.63" width="10" height="10" as="geometry" />
        </mxCell>
        <mxCell id="8M1j4d1DlvPESHGVBWMY-102" value="" style="endArrow=none;html=1;rounded=0;exitX=0.25;exitY=0;exitDx=0;exitDy=0;" parent="WIyWlLk6GJQsqaUBKTNV-1" source="8M1j4d1DlvPESHGVBWMY-80" target="8M1j4d1DlvPESHGVBWMY-103" edge="1">
          <mxGeometry width="50" height="50" relative="1" as="geometry">
            <mxPoint x="620" y="498.63" as="sourcePoint" />
            <mxPoint x="656" y="458.63" as="targetPoint" />
          </mxGeometry>
        </mxCell>
        <mxCell id="8M1j4d1DlvPESHGVBWMY-103" value="" style="ellipse;whiteSpace=wrap;html=1;aspect=fixed;fillColor=#FFFFFF;" parent="WIyWlLk6GJQsqaUBKTNV-1" vertex="1">
          <mxGeometry x="650" y="458.63" width="10" height="10" as="geometry" />
        </mxCell>
        <mxCell id="8M1j4d1DlvPESHGVBWMY-104" value="" style="endArrow=none;html=1;rounded=0;exitX=0.5;exitY=0;exitDx=0;exitDy=0;" parent="WIyWlLk6GJQsqaUBKTNV-1" source="8M1j4d1DlvPESHGVBWMY-80" target="8M1j4d1DlvPESHGVBWMY-105" edge="1">
          <mxGeometry width="50" height="50" relative="1" as="geometry">
            <mxPoint x="650" y="498.63" as="sourcePoint" />
            <mxPoint x="710" y="464.63" as="targetPoint" />
          </mxGeometry>
        </mxCell>
        <mxCell id="8M1j4d1DlvPESHGVBWMY-105" value="" style="ellipse;whiteSpace=wrap;html=1;aspect=fixed;fillColor=#FFFFFF;" parent="WIyWlLk6GJQsqaUBKTNV-1" vertex="1">
          <mxGeometry x="710" y="458.63" width="10" height="10" as="geometry" />
        </mxCell>
        <mxCell id="8M1j4d1DlvPESHGVBWMY-107" value="" style="ellipse;whiteSpace=wrap;html=1;aspect=fixed;fillColor=#FFFFFF;" parent="WIyWlLk6GJQsqaUBKTNV-1" vertex="1">
          <mxGeometry x="750" y="477.63" width="10" height="10" as="geometry" />
        </mxCell>
        <mxCell id="8M1j4d1DlvPESHGVBWMY-108" value="" style="endArrow=none;html=1;rounded=0;exitX=1;exitY=0.25;exitDx=0;exitDy=0;" parent="WIyWlLk6GJQsqaUBKTNV-1" source="8M1j4d1DlvPESHGVBWMY-80" target="8M1j4d1DlvPESHGVBWMY-109" edge="1">
          <mxGeometry width="50" height="50" relative="1" as="geometry">
            <mxPoint x="710" y="513.63" as="sourcePoint" />
            <mxPoint x="750" y="513.63" as="targetPoint" />
          </mxGeometry>
        </mxCell>
        <mxCell id="8M1j4d1DlvPESHGVBWMY-109" value="" style="ellipse;whiteSpace=wrap;html=1;aspect=fixed;fillColor=#FFFFFF;" parent="WIyWlLk6GJQsqaUBKTNV-1" vertex="1">
          <mxGeometry x="740" y="508.63" width="10" height="10" as="geometry" />
        </mxCell>
        <mxCell id="8M1j4d1DlvPESHGVBWMY-110" value="" style="endArrow=none;html=1;rounded=0;exitX=1.008;exitY=0.617;exitDx=0;exitDy=0;exitPerimeter=0;" parent="WIyWlLk6GJQsqaUBKTNV-1" source="8M1j4d1DlvPESHGVBWMY-80" target="8M1j4d1DlvPESHGVBWMY-111" edge="1">
          <mxGeometry width="50" height="50" relative="1" as="geometry">
            <mxPoint x="711" y="535.63" as="sourcePoint" />
            <mxPoint x="740" y="540.63" as="targetPoint" />
          </mxGeometry>
        </mxCell>
        <mxCell id="8M1j4d1DlvPESHGVBWMY-111" value="" style="ellipse;whiteSpace=wrap;html=1;aspect=fixed;fillColor=#FFFFFF;" parent="WIyWlLk6GJQsqaUBKTNV-1" vertex="1">
          <mxGeometry x="740" y="538.63" width="10" height="10" as="geometry" />
        </mxCell>
        <mxCell id="8M1j4d1DlvPESHGVBWMY-112" value="" style="endArrow=none;html=1;rounded=0;exitX=1;exitY=1;exitDx=0;exitDy=0;" parent="WIyWlLk6GJQsqaUBKTNV-1" source="8M1j4d1DlvPESHGVBWMY-80" target="8M1j4d1DlvPESHGVBWMY-113" edge="1">
          <mxGeometry width="50" height="50" relative="1" as="geometry">
            <mxPoint x="710" y="558.63" as="sourcePoint" />
            <mxPoint x="740" y="573.63" as="targetPoint" />
          </mxGeometry>
        </mxCell>
        <mxCell id="8M1j4d1DlvPESHGVBWMY-113" value="" style="ellipse;whiteSpace=wrap;html=1;aspect=fixed;fillColor=#FFFFFF;" parent="WIyWlLk6GJQsqaUBKTNV-1" vertex="1">
          <mxGeometry x="740" y="568.63" width="10" height="10" as="geometry" />
        </mxCell>
        <mxCell id="8M1j4d1DlvPESHGVBWMY-114" value="" style="endArrow=none;html=1;rounded=0;exitX=0.808;exitY=1.067;exitDx=0;exitDy=0;exitPerimeter=0;" parent="WIyWlLk6GJQsqaUBKTNV-1" source="8M1j4d1DlvPESHGVBWMY-80" target="8M1j4d1DlvPESHGVBWMY-115" edge="1">
          <mxGeometry width="50" height="50" relative="1" as="geometry">
            <mxPoint x="687" y="562.63" as="sourcePoint" />
            <mxPoint x="698" y="588.63" as="targetPoint" />
          </mxGeometry>
        </mxCell>
        <mxCell id="8M1j4d1DlvPESHGVBWMY-115" value="" style="ellipse;whiteSpace=wrap;html=1;aspect=fixed;fillColor=#FFFFFF;" parent="WIyWlLk6GJQsqaUBKTNV-1" vertex="1">
          <mxGeometry x="690" y="585" width="10" height="10" as="geometry" />
        </mxCell>
        <mxCell id="8M1j4d1DlvPESHGVBWMY-116" value="" style="ellipse;whiteSpace=wrap;html=1;aspect=fixed;fillColor=#FFFFFF;" parent="WIyWlLk6GJQsqaUBKTNV-1" vertex="1">
          <mxGeometry x="605" y="586.63" width="10" height="10" as="geometry" />
        </mxCell>
        <mxCell id="8M1j4d1DlvPESHGVBWMY-117" value="" style="endArrow=none;html=1;rounded=0;exitX=0.5;exitY=1;exitDx=0;exitDy=0;entryX=0.5;entryY=0;entryDx=0;entryDy=0;" parent="WIyWlLk6GJQsqaUBKTNV-1" source="8M1j4d1DlvPESHGVBWMY-2" target="8M1j4d1DlvPESHGVBWMY-119" edge="1">
          <mxGeometry width="50" height="50" relative="1" as="geometry">
            <mxPoint x="410" y="417.63" as="sourcePoint" />
            <mxPoint x="150" y="497.63" as="targetPoint" />
          </mxGeometry>
        </mxCell>
        <mxCell id="8M1j4d1DlvPESHGVBWMY-118" value="id_partA" style="text;html=1;align=center;verticalAlign=middle;resizable=0;points=[];autosize=1;strokeColor=none;fillColor=none;" parent="WIyWlLk6GJQsqaUBKTNV-1" vertex="1">
          <mxGeometry x="125" y="523.63" width="70" height="30" as="geometry" />
        </mxCell>
        <mxCell id="8M1j4d1DlvPESHGVBWMY-119" value="" style="ellipse;whiteSpace=wrap;html=1;aspect=fixed;fillColor=#FFFFFF;" parent="WIyWlLk6GJQsqaUBKTNV-1" vertex="1">
          <mxGeometry x="150" y="518.63" width="10" height="10" as="geometry" />
        </mxCell>
        <mxCell id="8M1j4d1DlvPESHGVBWMY-120" value="id_partA" style="text;html=1;align=center;verticalAlign=middle;resizable=0;points=[];autosize=1;strokeColor=none;fillColor=none;" parent="WIyWlLk6GJQsqaUBKTNV-1" vertex="1">
          <mxGeometry x="175" y="503.63" width="70" height="30" as="geometry" />
        </mxCell>
        <mxCell id="8M1j4d1DlvPESHGVBWMY-121" value="" style="endArrow=none;html=1;rounded=0;entryX=0.75;entryY=1;entryDx=0;entryDy=0;exitX=0.3;exitY=0;exitDx=0;exitDy=0;exitPerimeter=0;" parent="WIyWlLk6GJQsqaUBKTNV-1" source="8M1j4d1DlvPESHGVBWMY-122" target="8M1j4d1DlvPESHGVBWMY-2" edge="1">
          <mxGeometry width="50" height="50" relative="1" as="geometry">
            <mxPoint x="410" y="417.63" as="sourcePoint" />
            <mxPoint x="460" y="367.63" as="targetPoint" />
          </mxGeometry>
        </mxCell>
        <mxCell id="8M1j4d1DlvPESHGVBWMY-123" value="" style="endArrow=none;html=1;rounded=0;entryX=0.75;entryY=1;entryDx=0;entryDy=0;exitX=0.3;exitY=0;exitDx=0;exitDy=0;exitPerimeter=0;" parent="WIyWlLk6GJQsqaUBKTNV-1" source="8M1j4d1DlvPESHGVBWMY-120" target="8M1j4d1DlvPESHGVBWMY-122" edge="1">
          <mxGeometry width="50" height="50" relative="1" as="geometry">
            <mxPoint x="196" y="503.63" as="sourcePoint" />
            <mxPoint x="190" y="447.63" as="targetPoint" />
          </mxGeometry>
        </mxCell>
        <mxCell id="8M1j4d1DlvPESHGVBWMY-122" value="" style="ellipse;whiteSpace=wrap;html=1;aspect=fixed;fillColor=#FFFFFF;" parent="WIyWlLk6GJQsqaUBKTNV-1" vertex="1">
          <mxGeometry x="190" y="497.63" width="10" height="10" as="geometry" />
        </mxCell>
        <mxCell id="av2zekRrmx4jX-OWGvIq-0" value="" style="endArrow=none;html=1;rounded=0;exitX=-0.007;exitY=0.8;exitDx=0;exitDy=0;exitPerimeter=0;entryX=0.707;entryY=0.04;entryDx=0;entryDy=0;entryPerimeter=0;" edge="1" parent="WIyWlLk6GJQsqaUBKTNV-1" source="av2zekRrmx4jX-OWGvIq-1" target="8M1j4d1DlvPESHGVBWMY-38">
          <mxGeometry width="50" height="50" relative="1" as="geometry">
            <mxPoint x="123" y="456.63" as="sourcePoint" />
            <mxPoint x="115" y="512.63" as="targetPoint" />
          </mxGeometry>
        </mxCell>
        <mxCell id="av2zekRrmx4jX-OWGvIq-2" value="" style="endArrow=none;html=1;rounded=0;exitX=-0.007;exitY=0.8;exitDx=0;exitDy=0;exitPerimeter=0;entryX=1;entryY=0;entryDx=0;entryDy=0;" edge="1" parent="WIyWlLk6GJQsqaUBKTNV-1" source="8M1j4d1DlvPESHGVBWMY-2" target="av2zekRrmx4jX-OWGvIq-1">
          <mxGeometry width="50" height="50" relative="1" as="geometry">
            <mxPoint x="99" y="435.63" as="sourcePoint" />
            <mxPoint x="72" y="484.63" as="targetPoint" />
          </mxGeometry>
        </mxCell>
        <mxCell id="av2zekRrmx4jX-OWGvIq-1" value="" style="ellipse;whiteSpace=wrap;html=1;aspect=fixed;fillColor=#FFFFFF;" vertex="1" parent="WIyWlLk6GJQsqaUBKTNV-1">
          <mxGeometry x="70" y="477.63" width="10" height="10" as="geometry" />
        </mxCell>
        <mxCell id="av2zekRrmx4jX-OWGvIq-3" value="id_event" style="text;html=1;align=center;verticalAlign=middle;resizable=0;points=[];autosize=1;strokeColor=none;fillColor=none;" vertex="1" parent="WIyWlLk6GJQsqaUBKTNV-1">
          <mxGeometry y="433.63" width="70" height="30" as="geometry" />
        </mxCell>
        <mxCell id="av2zekRrmx4jX-OWGvIq-5" value="" style="endArrow=none;html=1;rounded=0;exitX=0.5;exitY=0;exitDx=0;exitDy=0;" edge="1" parent="WIyWlLk6GJQsqaUBKTNV-1" source="8M1j4d1DlvPESHGVBWMY-10" target="8M1j4d1DlvPESHGVBWMY-66">
          <mxGeometry width="50" height="50" relative="1" as="geometry">
            <mxPoint x="640" y="268" as="sourcePoint" />
            <mxPoint x="700.5976445005258" y="235.00049911510143" as="targetPoint" />
          </mxGeometry>
        </mxCell>
        <mxCell id="8M1j4d1DlvPESHGVBWMY-66" value="" style="ellipse;whiteSpace=wrap;html=1;aspect=fixed;fillColor=#FFFFFF;" parent="WIyWlLk6GJQsqaUBKTNV-1" vertex="1">
          <mxGeometry x="685" y="225" width="10" height="10" as="geometry" />
        </mxCell>
      </root>
    </mxGraphModel>
  </diagram>
</mxfile>
